<mxfile host="app.diagrams.net" modified="2020-12-20T04:58:21.306Z" agent="5.0 (Macintosh; Intel Mac OS X 10_15_6) AppleWebKit/537.36 (KHTML, like Gecko) Chrome/87.0.4280.88 Safari/537.36" etag="pRhEEwGyEAu5PO3KJXi-" version="13.0.6" type="github">
  <diagram id="q3HXbSxSOcLccRLmQPMo" name="Pagina-1">
    <mxGraphModel dx="946" dy="543" grid="1" gridSize="10" guides="1" tooltips="1" connect="1" arrows="1" fold="1" page="1" pageScale="1" pageWidth="827" pageHeight="1169" math="0" shadow="0">
      <root>
        <mxCell id="0" />
        <mxCell id="1" parent="0" />
        <mxCell id="Kv6qJeQaaTYzXFAOliKj-1" value="" style="edgeStyle=orthogonalEdgeStyle;rounded=0;orthogonalLoop=1;jettySize=auto;html=1;strokeWidth=2;fillColor=#0050ef;strokeColor=#001DBC;" parent="1" source="Kv6qJeQaaTYzXFAOliKj-2" target="Kv6qJeQaaTYzXFAOliKj-4" edge="1">
          <mxGeometry relative="1" as="geometry" />
        </mxCell>
        <mxCell id="Kv6qJeQaaTYzXFAOliKj-2" value="开始" style="strokeWidth=2;html=1;shape=mxgraph.flowchart.start_2;whiteSpace=wrap;fillColor=#cdeb8b;strokeColor=#36393d;" parent="1" vertex="1">
          <mxGeometry x="190" y="50" width="60" height="40" as="geometry" />
        </mxCell>
        <mxCell id="Kv6qJeQaaTYzXFAOliKj-3" value="" style="edgeStyle=orthogonalEdgeStyle;rounded=0;orthogonalLoop=1;jettySize=auto;html=1;strokeWidth=2;fillColor=#0050ef;strokeColor=#001DBC;" parent="1" source="Kv6qJeQaaTYzXFAOliKj-4" target="Kv6qJeQaaTYzXFAOliKj-7" edge="1">
          <mxGeometry relative="1" as="geometry" />
        </mxCell>
        <mxCell id="Kv6qJeQaaTYzXFAOliKj-4" value="从ExtensionLoader获取缓存的cachedAdaptiveInstance" style="whiteSpace=wrap;html=1;strokeWidth=2;align=left;fillColor=#d5e8d4;strokeColor=#82b366;" parent="1" vertex="1">
          <mxGeometry x="140" y="130" width="160" height="60" as="geometry" />
        </mxCell>
        <mxCell id="Kv6qJeQaaTYzXFAOliKj-5" value="" style="edgeStyle=orthogonalEdgeStyle;rounded=0;orthogonalLoop=1;jettySize=auto;html=1;strokeWidth=2;fillColor=#0050ef;strokeColor=#001DBC;" parent="1" source="Kv6qJeQaaTYzXFAOliKj-7" target="Kv6qJeQaaTYzXFAOliKj-9" edge="1">
          <mxGeometry relative="1" as="geometry" />
        </mxCell>
        <mxCell id="Kv6qJeQaaTYzXFAOliKj-7" value="&lt;span&gt;cachedAdaptiveInstance==null?&lt;/span&gt;" style="rhombus;whiteSpace=wrap;html=1;align=left;strokeWidth=2;fillColor=#d5e8d4;strokeColor=#82b366;" parent="1" vertex="1">
          <mxGeometry x="127" y="220" width="186" height="100" as="geometry" />
        </mxCell>
        <mxCell id="Kv6qJeQaaTYzXFAOliKj-8" value="" style="edgeStyle=orthogonalEdgeStyle;rounded=0;orthogonalLoop=1;jettySize=auto;html=1;fillColor=#0050ef;strokeColor=#001DBC;strokeWidth=2;" parent="1" source="Kv6qJeQaaTYzXFAOliKj-9" target="Kv6qJeQaaTYzXFAOliKj-11" edge="1">
          <mxGeometry relative="1" as="geometry" />
        </mxCell>
        <mxCell id="Kv6qJeQaaTYzXFAOliKj-9" value="开始创建adaptive实例并缓存" style="whiteSpace=wrap;html=1;align=left;strokeWidth=2;fillColor=#f5f5f5;strokeColor=#666666;gradientColor=#b3b3b3;" parent="1" vertex="1">
          <mxGeometry x="160" y="350" width="120" height="60" as="geometry" />
        </mxCell>
        <mxCell id="Kv6qJeQaaTYzXFAOliKj-10" value="" style="edgeStyle=orthogonalEdgeStyle;rounded=0;orthogonalLoop=1;jettySize=auto;html=1;fillColor=#0050ef;strokeColor=#001DBC;strokeWidth=2;" parent="1" source="Kv6qJeQaaTYzXFAOliKj-11" target="Kv6qJeQaaTYzXFAOliKj-14" edge="1">
          <mxGeometry relative="1" as="geometry" />
        </mxCell>
        <mxCell id="Kv6qJeQaaTYzXFAOliKj-11" value="查询是否有@Adaptive修饰的类" style="whiteSpace=wrap;html=1;align=left;strokeWidth=2;gradientColor=#ffa500;fillColor=#ffcd28;strokeColor=#d79b00;" parent="1" vertex="1">
          <mxGeometry x="160" y="450" width="120" height="60" as="geometry" />
        </mxCell>
        <mxCell id="Kv6qJeQaaTYzXFAOliKj-12" value="" style="edgeStyle=orthogonalEdgeStyle;rounded=0;orthogonalLoop=1;jettySize=auto;html=1;fillColor=#0050ef;strokeColor=#001DBC;strokeWidth=2;exitX=0.5;exitY=1;exitDx=0;exitDy=0;" parent="1" source="Kv6qJeQaaTYzXFAOliKj-14" target="Kv6qJeQaaTYzXFAOliKj-16" edge="1">
          <mxGeometry relative="1" as="geometry">
            <Array as="points">
              <mxPoint x="220" y="640" />
              <mxPoint x="220" y="640" />
            </Array>
          </mxGeometry>
        </mxCell>
        <mxCell id="Kv6qJeQaaTYzXFAOliKj-13" value="" style="edgeStyle=orthogonalEdgeStyle;rounded=0;orthogonalLoop=1;jettySize=auto;html=1;strokeWidth=2;fillColor=#0050ef;strokeColor=#001DBC;" parent="1" source="Kv6qJeQaaTYzXFAOliKj-14" target="Kv6qJeQaaTYzXFAOliKj-25" edge="1">
          <mxGeometry relative="1" as="geometry" />
        </mxCell>
        <mxCell id="Kv6qJeQaaTYzXFAOliKj-14" value="cachedAdaptiveClass==null?" style="rhombus;whiteSpace=wrap;html=1;align=left;strokeWidth=2;gradientColor=#ffa500;fillColor=#ffcd28;strokeColor=#d79b00;" parent="1" vertex="1">
          <mxGeometry x="136.5" y="540" width="167" height="80" as="geometry" />
        </mxCell>
        <mxCell id="Kv6qJeQaaTYzXFAOliKj-15" value="" style="edgeStyle=orthogonalEdgeStyle;rounded=0;orthogonalLoop=1;jettySize=auto;html=1;strokeWidth=2;fillColor=#0050ef;strokeColor=#001DBC;" parent="1" source="Kv6qJeQaaTYzXFAOliKj-16" target="Kv6qJeQaaTYzXFAOliKj-18" edge="1">
          <mxGeometry relative="1" as="geometry" />
        </mxCell>
        <mxCell id="Kv6qJeQaaTYzXFAOliKj-16" value="动态生成adaptive代码，字符串拼接" style="whiteSpace=wrap;html=1;align=left;strokeWidth=2;fillColor=#e51400;strokeColor=#B20000;fontColor=#ffffff;" parent="1" vertex="1">
          <mxGeometry x="160" y="670" width="120" height="60" as="geometry" />
        </mxCell>
        <mxCell id="Kv6qJeQaaTYzXFAOliKj-17" value="" style="edgeStyle=orthogonalEdgeStyle;rounded=0;orthogonalLoop=1;jettySize=auto;html=1;strokeWidth=2;fillColor=#0050ef;strokeColor=#001DBC;" parent="1" source="Kv6qJeQaaTYzXFAOliKj-18" target="Kv6qJeQaaTYzXFAOliKj-20" edge="1">
          <mxGeometry relative="1" as="geometry" />
        </mxCell>
        <mxCell id="Kv6qJeQaaTYzXFAOliKj-18" value="默认使用javassist编译生成Xxx$Adaptive类" style="whiteSpace=wrap;html=1;align=left;strokeWidth=2;fillColor=#e51400;strokeColor=#B20000;fontColor=#ffffff;" parent="1" vertex="1">
          <mxGeometry x="160" y="790" width="120" height="60" as="geometry" />
        </mxCell>
        <mxCell id="Kv6qJeQaaTYzXFAOliKj-19" value="" style="edgeStyle=orthogonalEdgeStyle;rounded=0;orthogonalLoop=1;jettySize=auto;html=1;strokeWidth=2;fillColor=#0050ef;strokeColor=#001DBC;" parent="1" source="Kv6qJeQaaTYzXFAOliKj-20" target="Kv6qJeQaaTYzXFAOliKj-22" edge="1">
          <mxGeometry relative="1" as="geometry" />
        </mxCell>
        <mxCell id="Kv6qJeQaaTYzXFAOliKj-20" value="使用newInstance实例化" style="whiteSpace=wrap;html=1;align=left;strokeWidth=2;fillColor=#eeeeee;strokeColor=#36393d;" parent="1" vertex="1">
          <mxGeometry x="160" y="920" width="120" height="60" as="geometry" />
        </mxCell>
        <mxCell id="Kv6qJeQaaTYzXFAOliKj-21" value="" style="edgeStyle=orthogonalEdgeStyle;rounded=0;orthogonalLoop=1;jettySize=auto;html=1;strokeWidth=2;fillColor=#0050ef;strokeColor=#001DBC;" parent="1" source="Kv6qJeQaaTYzXFAOliKj-22" target="Kv6qJeQaaTYzXFAOliKj-28" edge="1">
          <mxGeometry relative="1" as="geometry" />
        </mxCell>
        <mxCell id="Kv6qJeQaaTYzXFAOliKj-22" value="injectExtension,通过setter方法注入依赖的Extension或Spring Bean" style="whiteSpace=wrap;html=1;align=left;strokeWidth=2;fillColor=#eeeeee;strokeColor=#36393d;" parent="1" vertex="1">
          <mxGeometry x="160" y="1030" width="120" height="60" as="geometry" />
        </mxCell>
        <mxCell id="Kv6qJeQaaTYzXFAOliKj-23" value="是" style="text;html=1;align=center;verticalAlign=middle;resizable=0;points=[];autosize=1;" parent="1" vertex="1">
          <mxGeometry x="220" y="320" width="30" height="20" as="geometry" />
        </mxCell>
        <mxCell id="Kv6qJeQaaTYzXFAOliKj-24" value="是" style="text;html=1;align=center;verticalAlign=middle;resizable=0;points=[];autosize=1;" parent="1" vertex="1">
          <mxGeometry x="215" y="619" width="30" height="20" as="geometry" />
        </mxCell>
        <mxCell id="Kv6qJeQaaTYzXFAOliKj-27" value="否" style="text;html=1;align=center;verticalAlign=middle;resizable=0;points=[];autosize=1;" parent="1" vertex="1">
          <mxGeometry x="320" y="560" width="30" height="20" as="geometry" />
        </mxCell>
        <mxCell id="Kv6qJeQaaTYzXFAOliKj-28" value="&lt;span style=&quot;&quot;&gt;返回实例&lt;/span&gt;" style="whiteSpace=wrap;html=1;align=center;strokeWidth=2;fillColor=#eeeeee;strokeColor=#36393d;" parent="1" vertex="1">
          <mxGeometry x="160" y="1140" width="120" height="60" as="geometry" />
        </mxCell>
        <mxCell id="Kv6qJeQaaTYzXFAOliKj-29" value="否" style="text;html=1;align=center;verticalAlign=middle;resizable=0;points=[];autosize=1;" parent="1" vertex="1">
          <mxGeometry x="70" y="330" width="30" height="20" as="geometry" />
        </mxCell>
        <mxCell id="Kv6qJeQaaTYzXFAOliKj-30" value="结束" style="strokeWidth=2;html=1;shape=mxgraph.flowchart.start_2;whiteSpace=wrap;fillColor=#cdeb8b;strokeColor=#36393d;" parent="1" vertex="1">
          <mxGeometry x="190" y="1250" width="60" height="40" as="geometry" />
        </mxCell>
        <mxCell id="Kv6qJeQaaTYzXFAOliKj-31" value="" style="edgeStyle=orthogonalEdgeStyle;rounded=0;orthogonalLoop=1;jettySize=auto;html=1;strokeWidth=2;fillColor=#0050ef;strokeColor=#001DBC;" parent="1" source="Kv6qJeQaaTYzXFAOliKj-28" target="Kv6qJeQaaTYzXFAOliKj-30" edge="1">
          <mxGeometry relative="1" as="geometry">
            <mxPoint x="1950" y="160" as="sourcePoint" />
            <mxPoint x="2373.5" y="160" as="targetPoint" />
          </mxGeometry>
        </mxCell>
        <mxCell id="Kv6qJeQaaTYzXFAOliKj-25" value="获取@Adaptive修饰的类Class" style="whiteSpace=wrap;html=1;align=left;strokeWidth=2;fillColor=#60a917;strokeColor=#2D7600;fontColor=#ffffff;" parent="1" vertex="1">
          <mxGeometry x="370" y="550" width="120" height="60" as="geometry" />
        </mxCell>
        <mxCell id="Kv6qJeQaaTYzXFAOliKj-32" value="" style="edgeStyle=orthogonalEdgeStyle;rounded=0;orthogonalLoop=1;jettySize=auto;html=1;fillColor=#0050ef;strokeColor=#001DBC;strokeWidth=2;" parent="1" source="Kv6qJeQaaTYzXFAOliKj-14" target="Kv6qJeQaaTYzXFAOliKj-25" edge="1">
          <mxGeometry relative="1" as="geometry">
            <mxPoint x="303.5" y="570" as="sourcePoint" />
            <mxPoint x="1220" y="190" as="targetPoint" />
          </mxGeometry>
        </mxCell>
        <mxCell id="Kv6qJeQaaTYzXFAOliKj-33" value="" style="edgeStyle=orthogonalEdgeStyle;rounded=0;orthogonalLoop=1;jettySize=auto;html=1;strokeWidth=2;fillColor=#0050ef;strokeColor=#001DBC;exitX=0.5;exitY=1;exitDx=0;exitDy=0;entryX=1;entryY=0.5;entryDx=0;entryDy=0;" parent="1" source="Kv6qJeQaaTYzXFAOliKj-25" target="Kv6qJeQaaTYzXFAOliKj-18" edge="1">
          <mxGeometry relative="1" as="geometry">
            <mxPoint x="230" y="730" as="sourcePoint" />
            <mxPoint x="230" y="790" as="targetPoint" />
            <Array as="points">
              <mxPoint x="430" y="820" />
            </Array>
          </mxGeometry>
        </mxCell>
        <mxCell id="Kv6qJeQaaTYzXFAOliKj-34" value="" style="edgeStyle=orthogonalEdgeStyle;rounded=0;orthogonalLoop=1;jettySize=auto;html=1;strokeWidth=2;fillColor=#0050ef;strokeColor=#001DBC;exitX=0;exitY=0.5;exitDx=0;exitDy=0;entryX=0;entryY=0.5;entryDx=0;entryDy=0;" parent="1" source="Kv6qJeQaaTYzXFAOliKj-4" target="Kv6qJeQaaTYzXFAOliKj-28" edge="1">
          <mxGeometry relative="1" as="geometry">
            <mxPoint x="150" y="210" as="sourcePoint" />
            <mxPoint x="100" y="890" as="targetPoint" />
            <Array as="points">
              <mxPoint x="100" y="160" />
              <mxPoint x="100" y="1170" />
            </Array>
          </mxGeometry>
        </mxCell>
      </root>
    </mxGraphModel>
  </diagram>
</mxfile>
